<svg id="svg" version="1.1" xmlns="http://www.w3.org/2000/svg" xmlns:xlink="http://www.w3.org/1999/xlink" width="400" height="323.4375" viewBox="0, 0, 400,323.4375"><g id="svgg"><path id="path0" d="M243.281 50.705 C 240.796 51.527,238.794 52.417,238.488 52.836 C 238.385 52.976,237.949 53.158,237.518 53.241 C 237.086 53.324,236.685 53.539,236.625 53.718 C 236.565 53.898,236.342 54.045,236.129 54.045 C 235.917 54.045,235.274 54.474,234.700 54.998 C 234.126 55.522,233.657 55.854,233.657 55.735 C 233.657 55.616,233.430 55.843,233.153 56.239 C 232.876 56.634,232.496 56.958,232.309 56.958 C 232.122 56.958,231.206 57.759,230.273 58.738 C 229.339 59.717,228.412 60.518,228.212 60.518 C 228.012 60.518,227.623 60.953,227.348 61.486 C 227.073 62.018,226.486 62.690,226.045 62.979 C 225.604 63.268,225.239 63.670,225.234 63.872 C 225.229 64.074,224.792 64.664,224.263 65.183 C 223.734 65.703,223.301 66.247,223.301 66.394 C 223.301 66.541,222.797 67.321,222.181 68.128 C 220.228 70.687,220.514 70.780,227.832 69.973 C 230.594 69.668,235.873 69.677,238.511 69.991 C 239.668 70.129,241.489 70.316,242.557 70.406 C 244.824 70.599,247.987 71.226,248.220 71.530 C 248.309 71.646,249.401 72.007,250.647 72.331 C 251.893 72.655,253.204 73.072,253.560 73.257 C 253.916 73.442,254.471 73.637,254.793 73.691 C 255.116 73.744,256.018 74.079,256.798 74.435 C 257.579 74.790,258.338 75.081,258.486 75.081 C 258.635 75.081,259.005 75.372,259.310 75.728 C 259.615 76.084,260.157 76.375,260.515 76.375 C 260.872 76.375,261.165 76.545,261.165 76.753 C 261.165 76.961,261.257 77.039,261.369 76.926 C 261.566 76.730,262.531 77.133,263.248 77.711 C 263.437 77.864,264.225 78.500,264.998 79.124 C 265.772 79.748,266.500 80.259,266.616 80.259 C 266.733 80.260,267.252 80.624,267.769 81.068 C 268.904 82.044,269.579 82.105,269.579 81.230 C 269.579 80.874,269.700 80.583,269.847 80.583 C 269.995 80.583,270.104 80.014,270.090 79.319 C 270.076 78.624,270.177 78.125,270.314 78.209 C 270.506 78.328,270.448 71.893,270.215 67.233 C 270.199 66.922,270.050 66.667,269.883 66.667 C 269.716 66.667,269.579 66.465,269.579 66.218 C 269.579 65.405,268.502 62.313,267.924 61.469 C 267.612 61.013,267.256 60.237,267.132 59.744 C 267.008 59.251,266.708 58.771,266.465 58.678 C 266.222 58.585,266.084 58.409,266.159 58.288 C 266.234 58.167,265.940 57.782,265.505 57.432 C 265.071 57.082,263.964 56.093,263.045 55.234 C 262.127 54.374,260.818 53.448,260.138 53.176 C 259.457 52.903,258.900 52.574,258.900 52.445 C 258.900 52.315,258.099 51.936,257.120 51.604 C 256.141 51.271,255.340 50.907,255.340 50.796 C 255.340 50.685,255.158 50.570,254.935 50.542 C 253.716 50.389,253.191 50.272,252.892 50.087 C 251.990 49.530,245.590 49.942,243.281 50.705 M169.683 95.469 C 169.683 96.626,169.742 97.100,169.813 96.521 C 169.885 95.943,169.885 94.996,169.813 94.417 C 169.742 93.839,169.683 94.312,169.683 95.469 M169.683 102.913 C 169.683 104.070,169.742 104.543,169.813 103.964 C 169.885 103.386,169.885 102.439,169.813 101.861 C 169.742 101.282,169.683 101.756,169.683 102.913 M229.935 110.261 C 228.511 110.512,227.298 110.855,227.238 111.023 C 227.179 111.190,226.897 111.327,226.612 111.327 C 225.693 111.327,221.851 112.375,221.655 112.679 C 221.551 112.841,220.204 113.271,218.661 113.634 C 217.119 113.998,215.858 114.437,215.858 114.610 C 215.858 114.783,215.712 114.835,215.534 114.725 C 215.356 114.615,215.210 114.656,215.210 114.816 C 215.210 114.977,214.337 115.372,213.269 115.696 C 212.201 116.019,211.327 116.374,211.327 116.485 C 211.327 116.596,210.672 116.881,209.871 117.117 C 209.070 117.354,208.414 117.685,208.414 117.854 C 208.414 118.023,208.279 118.077,208.113 117.975 C 207.947 117.873,207.710 117.953,207.586 118.154 C 207.339 118.554,204.884 119.710,203.864 119.907 C 203.513 119.974,203.008 120.247,202.742 120.513 C 202.476 120.779,201.750 121.180,201.129 121.405 C 200.508 121.629,200.000 121.906,200.000 122.020 C 200.000 122.188,198.698 122.942,198.058 123.144 C 197.513 123.316,196.577 123.767,196.440 123.925 C 196.351 124.027,195.769 124.388,195.146 124.727 C 194.523 125.066,193.752 125.612,193.434 125.941 C 193.116 126.269,192.665 126.537,192.432 126.537 C 191.825 126.537,190.105 127.438,189.638 128.000 C 189.420 128.264,189.062 128.479,188.843 128.479 C 188.623 128.479,188.051 128.843,187.571 129.288 C 187.091 129.733,186.555 130.097,186.380 130.097 C 185.999 130.097,184.544 131.007,183.694 131.777 C 183.359 132.081,182.594 132.563,181.995 132.847 C 181.396 133.131,180.906 133.511,180.906 133.691 C 180.906 133.871,180.769 133.934,180.602 133.831 C 180.435 133.728,180.181 133.833,180.036 134.066 C 179.892 134.298,178.972 135.063,177.994 135.766 C 177.015 136.469,176.165 137.156,176.106 137.292 C 176.046 137.429,175.858 137.540,175.688 137.540 C 175.320 137.540,173.349 138.888,173.190 139.248 C 173.129 139.386,172.547 139.788,171.896 140.141 C 171.245 140.495,170.425 140.964,170.074 141.185 C 169.723 141.405,168.558 142.138,167.485 142.812 C 166.412 143.487,165.206 144.121,164.806 144.223 C 164.405 144.324,164.078 144.537,164.078 144.695 C 164.078 144.854,163.919 144.984,163.724 144.984 C 163.530 144.984,163.000 145.275,162.548 145.631 C 162.095 145.987,161.445 146.278,161.102 146.278 C 160.760 146.278,160.570 146.424,160.680 146.602 C 160.790 146.780,160.608 146.926,160.275 146.926 C 159.943 146.926,159.388 147.139,159.042 147.401 C 158.697 147.662,158.159 147.880,157.848 147.886 C 157.536 147.892,157.282 148.051,157.282 148.239 C 157.282 148.428,157.136 148.492,156.958 148.382 C 156.780 148.272,156.634 148.307,156.634 148.461 C 156.634 148.727,154.077 149.768,152.850 150.001 C 152.528 150.062,152.193 150.141,152.104 150.175 C 152.015 150.210,151.833 150.221,151.699 150.200 C 151.566 150.179,151.456 150.291,151.456 150.449 C 151.456 150.606,151.056 150.813,150.566 150.908 C 148.642 151.280,146.750 151.831,146.482 152.097 C 146.326 152.251,145.984 152.294,145.721 152.193 C 145.458 152.092,145.118 152.210,144.966 152.455 C 144.383 153.399,136.073 153.071,134.001 152.023 C 133.033 151.533,132.046 151.133,131.806 151.133 C 131.567 151.133,131.290 150.920,131.190 150.660 C 131.090 150.399,130.694 150.088,130.310 149.967 C 129.926 149.847,129.320 149.426,128.964 149.033 C 127.479 147.393,126.861 146.578,126.861 146.262 C 126.861 146.078,126.575 145.620,126.225 145.245 C 125.875 144.869,125.665 144.439,125.758 144.288 C 125.852 144.137,125.701 144.013,125.424 144.013 C 125.146 144.013,124.812 143.977,124.682 143.932 C 124.352 143.819,124.259 146.679,124.580 147.082 C 124.724 147.263,124.947 148.576,125.075 150.000 C 125.312 152.620,126.302 158.091,126.539 158.091 C 126.568 158.091,126.629 158.382,126.676 158.738 C 126.907 160.507,127.929 164.401,128.162 164.401 C 128.308 164.401,128.530 164.870,128.656 165.442 C 128.782 166.015,128.991 166.707,129.120 166.980 C 129.249 167.253,129.611 168.058,129.924 168.770 C 130.236 169.482,130.622 170.318,130.780 170.627 C 130.938 170.936,131.068 171.376,131.068 171.605 C 131.068 171.834,131.484 172.527,131.993 173.146 C 132.502 173.765,133.032 174.636,133.172 175.081 C 133.312 175.526,133.697 176.080,134.027 176.313 C 134.357 176.545,134.628 176.946,134.628 177.203 C 134.628 177.460,134.742 177.670,134.882 177.670 C 135.021 177.670,135.396 178.111,135.714 178.650 C 136.032 179.188,136.627 179.953,137.036 180.349 C 139.593 182.824,140.702 183.751,141.348 183.957 C 141.751 184.084,141.997 184.324,141.895 184.489 C 141.793 184.654,141.936 184.790,142.214 184.790 C 142.491 184.790,142.718 184.908,142.718 185.053 C 142.718 185.198,143.235 185.519,143.867 185.767 C 144.498 186.014,145.170 186.404,145.360 186.633 C 145.549 186.861,145.823 186.974,145.969 186.884 C 146.115 186.794,146.325 186.869,146.437 187.050 C 146.549 187.231,146.886 187.380,147.187 187.381 C 147.488 187.382,148.099 187.572,148.544 187.803 C 151.005 189.082,161.035 189.852,161.394 188.790 C 161.531 188.386,159.163 186.949,157.794 186.605 C 157.319 186.486,157.011 186.260,157.108 186.103 C 157.206 185.945,156.848 185.623,156.313 185.386 C 155.778 185.149,155.340 184.845,155.340 184.711 C 155.340 184.576,155.156 184.466,154.931 184.466 C 154.706 184.466,154.249 184.102,153.915 183.657 C 153.581 183.212,153.085 182.848,152.813 182.848 C 152.542 182.848,152.408 182.760,152.515 182.652 C 152.623 182.544,152.138 181.730,151.437 180.843 C 150.736 179.956,150.162 179.025,150.162 178.774 C 150.162 178.225,151.956 178.139,152.284 178.672 C 152.418 178.887,152.964 178.948,153.679 178.826 C 154.325 178.716,155.874 178.489,157.120 178.322 C 158.366 178.154,160.092 177.848,160.956 177.641 C 161.821 177.435,162.883 177.265,163.316 177.265 C 163.750 177.265,164.023 177.184,163.923 177.084 C 163.779 176.940,166.531 176.059,168.495 175.621 C 168.699 175.575,169.063 175.382,169.304 175.190 C 169.544 174.999,170.542 174.593,171.521 174.288 C 173.008 173.824,176.356 172.323,178.317 171.242 C 179.725 170.466,180.296 170.227,180.740 170.227 C 181.009 170.227,181.230 170.072,181.230 169.884 C 181.230 169.695,181.359 169.621,181.517 169.718 C 181.675 169.816,181.994 169.666,182.227 169.386 C 182.459 169.106,183.204 168.655,183.881 168.384 C 184.559 168.113,185.113 167.787,185.113 167.660 C 185.113 167.533,185.732 167.104,186.489 166.708 C 187.245 166.311,188.383 165.667,189.017 165.275 C 192.310 163.242,194.238 162.136,194.489 162.136 C 194.642 162.136,194.853 161.954,194.957 161.731 C 195.108 161.408,195.183 161.408,195.334 161.731 C 195.438 161.954,195.694 162.136,195.904 162.136 C 196.113 162.136,196.466 162.427,196.689 162.783 C 196.911 163.139,197.298 163.430,197.548 163.430 C 198.010 163.430,199.166 164.291,200.483 165.615 C 200.881 166.015,201.311 166.343,201.439 166.343 C 201.566 166.343,202.438 166.853,203.377 167.476 C 204.315 168.099,205.200 168.608,205.343 168.608 C 205.486 168.608,206.090 168.980,206.686 169.435 C 207.281 169.889,208.242 170.424,208.820 170.624 C 209.398 170.824,210.020 171.188,210.203 171.434 C 210.386 171.680,210.750 171.916,211.012 171.959 C 211.274 172.002,211.807 172.213,212.196 172.427 C 212.584 172.640,213.135 172.816,213.419 172.816 C 213.704 172.816,214.020 173.034,214.122 173.301 C 214.225 173.568,214.548 173.788,214.840 173.790 C 215.133 173.791,216.173 174.167,217.152 174.625 C 220.137 176.020,221.803 176.581,223.239 176.672 C 223.472 176.687,223.588 176.820,223.496 176.969 C 223.404 177.117,223.505 177.242,223.720 177.247 C 224.195 177.258,228.450 178.287,229.126 178.555 C 229.393 178.660,229.684 178.772,229.773 178.803 C 229.862 178.833,230.154 178.942,230.421 179.043 C 232.372 179.785,235.723 180.038,244.822 180.133 C 253.693 180.226,256.277 180.102,259.223 179.446 C 259.490 179.386,259.972 179.326,260.294 179.313 C 260.616 179.299,260.805 179.167,260.714 179.020 C 260.622 178.872,260.836 178.772,261.188 178.798 C 261.541 178.824,262.864 178.508,264.128 178.096 C 265.393 177.684,266.736 177.344,267.114 177.341 C 267.608 177.338,267.680 177.261,267.371 177.065 C 267.088 176.885,267.420 176.728,268.357 176.600 C 269.134 176.493,270.200 176.182,270.726 175.907 C 271.252 175.633,271.938 175.408,272.249 175.407 C 272.561 175.405,272.816 175.261,272.816 175.085 C 272.816 174.705,274.903 173.786,275.768 173.786 C 276.102 173.786,276.375 173.661,276.375 173.507 C 276.375 173.353,277.031 172.977,277.832 172.671 C 278.633 172.365,279.288 171.957,279.288 171.764 C 279.288 171.571,279.373 171.498,279.477 171.602 C 279.581 171.706,279.945 171.512,280.286 171.170 C 280.627 170.829,281.197 170.550,281.553 170.550 C 281.909 170.550,282.201 170.396,282.201 170.207 C 282.201 170.019,282.337 169.949,282.504 170.052 C 282.671 170.156,282.926 170.034,283.071 169.782 C 283.215 169.529,283.952 169.002,284.709 168.609 C 285.465 168.217,286.084 167.766,286.084 167.607 C 286.084 167.447,286.738 167.010,287.538 166.634 C 288.338 166.258,288.918 165.831,288.828 165.685 C 288.738 165.538,288.921 165.337,289.235 165.237 C 289.549 165.137,290.388 164.547,291.100 163.926 C 291.812 163.304,292.567 162.793,292.778 162.789 C 292.988 162.786,293.244 162.528,293.345 162.217 C 293.447 161.905,294.039 161.321,294.662 160.919 C 295.284 160.517,295.793 160.044,295.793 159.868 C 295.793 159.691,295.946 159.547,296.133 159.547 C 296.514 159.547,298.706 157.505,298.706 157.149 C 298.706 157.023,298.560 157.010,298.382 157.120 C 298.204 157.230,298.058 157.174,298.058 156.996 C 298.058 156.605,296.783 156.809,296.318 157.274 C 296.136 157.456,295.725 157.605,295.405 157.605 C 295.084 157.605,294.822 157.715,294.822 157.850 C 294.822 158.126,293.666 158.647,291.748 159.238 C 291.036 159.457,290.162 159.750,289.806 159.890 C 289.450 160.029,288.576 160.234,287.864 160.345 C 287.152 160.456,285.696 160.688,284.628 160.860 C 283.560 161.033,281.303 161.252,279.612 161.348 C 277.921 161.444,276.282 161.574,275.971 161.637 C 275.659 161.700,275.405 161.620,275.405 161.458 C 275.405 161.297,274.786 161.164,274.029 161.163 C 273.273 161.161,271.780 161.024,270.712 160.858 C 269.644 160.692,268.199 160.472,267.500 160.368 C 266.802 160.265,266.009 160.001,265.739 159.782 C 265.333 159.454,265.298 159.469,265.534 159.871 C 265.763 160.260,265.728 160.284,265.353 159.989 C 265.097 159.788,263.831 159.286,262.540 158.874 C 261.250 158.462,260.194 157.999,260.194 157.846 C 260.194 157.693,260.049 157.657,259.871 157.767 C 259.693 157.877,259.547 157.797,259.547 157.590 C 259.547 157.382,259.328 157.296,259.061 157.399 C 258.794 157.501,258.576 157.460,258.576 157.307 C 258.576 157.155,258.058 156.933,257.425 156.814 C 256.791 156.695,256.031 156.315,255.735 155.969 C 255.438 155.623,255.004 155.340,254.769 155.340 C 254.322 155.340,252.436 154.115,252.028 153.560 C 251.897 153.382,251.788 153.351,251.785 153.490 C 251.778 153.833,250.385 153.084,250.084 152.576 C 249.952 152.354,249.229 151.851,248.477 151.459 C 247.724 151.067,246.869 150.469,246.575 150.130 C 246.281 149.792,245.879 149.515,245.681 149.515 C 245.484 149.515,245.084 149.150,244.792 148.706 C 244.501 148.261,244.120 147.896,243.946 147.896 C 243.451 147.896,242.069 146.712,242.298 146.483 C 242.411 146.370,242.315 146.278,242.085 146.278 C 241.701 146.278,239.544 144.169,234.933 139.284 C 233.142 137.386,232.424 136.246,233.020 136.246 C 233.192 136.246,233.333 136.029,233.333 135.763 C 233.333 135.498,233.625 135.099,233.981 134.876 C 234.337 134.654,234.628 134.294,234.628 134.076 C 234.628 133.858,234.956 133.507,235.356 133.295 C 235.756 133.084,236.552 132.460,237.125 131.909 C 238.611 130.477,239.222 129.997,240.220 129.476 C 240.704 129.223,241.100 128.896,241.100 128.748 C 241.100 128.600,241.396 128.479,241.758 128.479 C 242.119 128.479,242.497 128.266,242.597 128.006 C 242.772 127.548,243.922 126.989,244.417 127.120 C 244.551 127.156,244.660 127.030,244.660 126.842 C 244.660 126.653,244.789 126.578,244.946 126.676 C 245.103 126.773,245.599 126.563,246.049 126.209 C 246.498 125.856,247.020 125.566,247.208 125.566 C 247.621 125.566,249.934 124.518,250.162 124.228 C 250.311 124.038,256.600 122.621,257.524 122.569 C 257.747 122.556,257.929 122.439,257.929 122.308 C 257.929 122.177,258.839 121.966,259.951 121.839 C 263.221 121.466,263.669 121.029,262.298 119.549 C 261.853 119.069,261.489 118.550,261.489 118.397 C 261.489 117.996,256.885 113.592,256.465 113.592 C 256.272 113.592,255.438 113.163,254.611 112.639 C 253.784 112.115,252.584 111.588,251.944 111.468 C 251.303 111.347,250.864 111.164,250.967 111.061 C 252.072 109.956,235.277 109.317,229.935 110.261 M139.612 142.846 C 139.517 143.094,139.489 143.859,139.550 144.545 C 139.652 145.701,139.671 145.668,139.814 144.094 C 139.971 142.359,139.920 142.044,139.612 142.846 M39.941 253.371 C 39.867 253.445,39.806 253.773,39.806 254.099 C 39.806 254.426,39.652 254.693,39.463 254.693 C 39.275 254.693,39.210 254.838,39.320 255.016 C 39.430 255.194,39.400 255.340,39.252 255.340 C 38.807 255.340,37.426 258.129,37.673 258.529 C 37.838 258.796,41.022 258.900,49.059 258.900 L 60.216 258.900 60.094 258.172 C 60.027 257.771,59.789 257.006,59.565 256.472 C 59.342 255.939,59.124 255.291,59.082 255.034 C 59.040 254.776,58.836 254.509,58.629 254.440 C 58.422 254.371,58.252 254.072,58.252 253.776 C 58.252 253.270,40.435 252.877,39.941 253.371 M224.982 253.722 C 224.885 253.989,224.710 254.280,224.594 254.369 C 224.157 254.704,223.230 256.836,223.080 257.848 L 222.925 258.900 234.097 258.900 C 244.509 258.900,247.374 258.671,245.365 258.002 C 245.155 257.932,244.984 257.696,244.984 257.477 C 244.984 257.124,244.053 254.907,243.435 253.789 C 243.064 253.118,225.228 253.053,224.982 253.722 " stroke="none" fill="#ec4c24" fill-rule="evenodd"></path><path id="path1" d="M47.887 212.973 C 47.642 213.717,47.244 214.522,47.004 214.762 C 46.764 215.002,46.505 215.529,46.429 215.933 C 46.284 216.707,45.608 218.173,45.271 218.447 C 44.895 218.751,43.689 221.332,43.689 221.832 C 43.689 222.106,43.544 222.330,43.366 222.330 C 43.188 222.330,43.042 222.521,43.042 222.755 C 43.042 222.988,42.751 223.782,42.395 224.519 C 42.039 225.256,41.748 226.011,41.748 226.198 C 41.748 226.385,41.612 226.537,41.446 226.537 C 41.280 226.537,41.042 226.865,40.917 227.265 C 40.793 227.666,39.776 229.887,38.659 232.201 C 37.542 234.515,36.532 236.735,36.415 237.136 C 36.298 237.536,36.058 237.864,35.881 237.864 C 35.705 237.864,35.651 238.010,35.761 238.188 C 35.871 238.366,35.843 238.512,35.699 238.513 C 35.555 238.513,35.154 239.205,34.808 240.050 C 34.462 240.895,33.989 241.778,33.756 242.013 C 33.524 242.249,33.333 242.713,33.333 243.046 C 33.333 243.379,33.204 243.731,33.046 243.829 C 32.887 243.927,32.657 244.407,32.534 244.897 C 32.412 245.386,32.213 245.861,32.094 245.951 C 31.856 246.132,31.396 247.062,29.615 250.965 C 28.966 252.386,28.326 253.624,28.192 253.716 C 28.058 253.808,27.692 254.539,27.379 255.340 C 26.538 257.487,24.503 261.586,24.033 262.078 C 23.808 262.313,23.625 262.778,23.625 263.111 C 23.625 263.444,23.479 263.806,23.301 263.916 C 23.123 264.026,22.977 264.399,22.977 264.744 C 22.977 265.090,22.832 265.372,22.654 265.372 C 22.476 265.372,22.353 265.481,22.380 265.615 C 22.408 265.748,22.189 266.399,21.895 267.061 C 21.600 267.723,21.359 268.341,21.359 268.436 C 21.359 268.531,23.473 268.608,26.057 268.608 L 30.755 268.608 31.295 267.476 C 31.592 266.853,31.962 266.343,32.118 266.343 C 32.273 266.343,32.311 266.197,32.201 266.019 C 32.091 265.841,32.136 265.696,32.301 265.696 C 32.467 265.696,32.789 265.029,33.017 264.213 C 33.245 263.398,33.592 262.560,33.788 262.352 C 33.984 262.144,34.507 261.173,34.949 260.194 C 35.392 259.215,35.901 258.307,36.081 258.176 C 36.261 258.046,36.288 257.936,36.142 257.934 C 35.996 257.931,36.105 257.700,36.385 257.420 C 36.664 257.141,36.893 256.696,36.893 256.433 C 36.893 256.169,37.709 254.323,38.706 252.330 C 39.702 250.336,40.757 248.196,41.049 247.573 C 41.341 246.950,41.666 246.367,41.772 246.278 C 41.940 246.137,43.974 241.813,44.969 239.482 C 45.159 239.037,45.671 238.091,46.106 237.379 C 46.541 236.667,46.904 235.756,46.912 235.356 C 46.919 234.956,47.054 234.628,47.212 234.628 C 47.369 234.628,47.818 233.838,48.210 232.872 C 48.986 230.960,49.838 230.250,49.838 231.515 C 49.838 231.927,50.272 232.906,50.803 233.689 C 51.334 234.472,51.771 235.346,51.774 235.629 C 51.777 235.913,52.058 236.397,52.398 236.705 C 52.738 237.013,53.112 237.654,53.229 238.131 C 53.345 238.607,54.157 240.417,55.032 242.152 C 55.907 243.888,56.516 245.310,56.386 245.312 C 56.255 245.315,56.296 245.424,56.476 245.555 C 56.656 245.686,57.164 246.594,57.605 247.573 C 58.046 248.552,58.482 249.426,58.573 249.515 C 58.956 249.890,59.480 251.061,59.687 252.006 C 59.810 252.564,60.091 253.090,60.313 253.175 C 60.534 253.260,60.918 253.964,61.165 254.739 C 61.412 255.514,61.951 256.561,62.361 257.064 C 62.771 257.567,63.107 258.272,63.107 258.632 C 63.107 258.991,63.372 259.672,63.696 260.144 C 64.020 260.617,64.543 261.698,64.858 262.546 C 65.173 263.395,65.636 264.295,65.887 264.546 C 66.138 264.797,66.343 265.100,66.343 265.219 C 66.343 265.339,66.546 265.895,66.794 266.456 C 67.042 267.017,67.328 267.731,67.431 268.042 C 67.676 268.788,77.023 268.923,77.023 268.181 C 77.023 267.318,75.947 264.544,75.361 263.895 C 75.029 263.528,74.757 263.130,74.757 263.012 C 74.757 262.894,74.270 261.738,73.673 260.444 C 73.077 259.150,72.499 257.836,72.389 257.524 C 72.279 257.213,72.048 256.958,71.877 256.958 C 71.705 256.958,71.465 256.643,71.342 256.258 C 71.220 255.873,70.892 255.036,70.613 254.397 C 70.334 253.759,70.133 253.127,70.166 252.994 C 70.199 252.860,70.081 252.751,69.903 252.751 C 69.725 252.751,69.578 252.569,69.576 252.346 C 69.574 252.124,69.224 251.286,68.798 250.485 C 67.636 248.302,66.371 245.644,66.385 245.418 C 66.393 245.308,66.231 245.114,66.026 244.988 C 65.821 244.861,65.608 244.553,65.553 244.304 C 65.354 243.406,64.578 241.748,64.356 241.748 C 64.232 241.748,63.891 241.028,63.598 240.148 C 63.306 239.268,62.809 238.212,62.494 237.801 C 62.180 237.391,61.642 236.364,61.301 235.519 C 60.959 234.674,60.570 233.982,60.437 233.982 C 60.303 233.981,60.194 233.698,60.194 233.352 C 60.194 233.007,60.060 232.641,59.895 232.540 C 59.731 232.438,59.501 231.921,59.385 231.390 C 59.268 230.859,59.000 230.314,58.790 230.180 C 58.350 229.899,56.756 226.539,56.877 226.150 C 56.922 226.007,56.828 225.890,56.669 225.890 C 56.511 225.890,56.296 225.552,56.192 225.138 C 56.088 224.725,55.654 223.871,55.226 223.240 C 54.798 222.610,54.266 221.529,54.044 220.837 C 53.822 220.145,53.440 219.349,53.195 219.068 C 52.950 218.786,52.847 218.458,52.966 218.339 C 53.085 218.220,52.988 218.123,52.751 218.123 C 52.513 218.123,52.401 218.041,52.501 217.941 C 52.602 217.841,51.986 216.421,51.133 214.785 C 49.297 211.265,48.583 210.866,47.887 212.973 M146.278 240.129 L 146.278 268.608 151.133 268.608 L 155.987 268.608 155.987 250.324 C 155.987 240.267,156.064 232.039,156.159 232.039 C 156.253 232.039,157.172 232.876,158.201 233.900 C 159.230 234.923,160.828 236.438,161.751 237.266 C 162.675 238.094,163.430 238.915,163.430 239.090 C 163.430 239.265,163.758 239.623,164.159 239.886 C 164.559 240.149,165.814 241.258,166.946 242.351 C 168.079 243.443,169.103 244.337,169.223 244.337 C 169.342 244.337,169.698 244.773,170.013 245.307 C 170.329 245.841,170.718 246.278,170.879 246.278 C 171.039 246.278,173.457 248.541,176.251 251.306 C 179.046 254.072,181.746 256.579,182.252 256.878 C 182.758 257.177,183.172 257.535,183.172 257.674 C 183.172 257.971,186.435 261.165,186.738 261.165 C 186.852 261.165,187.140 261.529,187.379 261.974 C 187.617 262.419,187.941 262.783,188.099 262.783 C 188.256 262.783,189.332 263.730,190.489 264.887 C 191.646 266.044,192.730 266.990,192.898 266.990 C 193.066 266.990,193.210 267.172,193.217 267.395 C 193.224 267.617,193.824 268.309,194.549 268.932 C 195.274 269.555,196.422 270.611,197.099 271.278 C 199.532 273.675,199.353 275.905,199.353 243.228 L 199.353 213.964 194.812 214.021 L 190.271 214.078 190.286 232.605 C 190.296 244.941,190.192 251.133,189.973 251.133 C 189.792 251.133,189.644 251.004,189.644 250.847 C 189.644 250.690,188.993 250.071,188.198 249.471 C 187.402 248.872,186.747 248.260,186.741 248.110 C 186.727 247.725,185.354 246.626,184.871 246.613 C 184.648 246.607,184.464 246.493,184.461 246.359 C 184.454 246.015,181.888 243.146,181.882 243.475 C 181.879 243.624,181.005 242.896,179.940 241.857 C 178.166 240.127,175.824 237.954,172.770 235.203 C 172.123 234.620,171.176 233.765,170.667 233.305 C 170.158 232.844,169.356 232.043,168.886 231.525 C 168.416 231.007,167.339 230.000,166.492 229.288 C 165.645 228.576,164.343 227.411,163.598 226.699 C 162.853 225.987,161.042 224.312,159.574 222.977 C 158.105 221.642,156.079 219.713,155.070 218.689 C 154.062 217.666,153.144 216.828,153.031 216.828 C 152.852 216.828,150.074 214.305,148.047 212.301 C 146.182 210.458,146.278 208.945,146.278 240.129 M232.925 213.188 C 232.526 214.033,232.082 214.812,231.936 214.919 C 231.791 215.026,231.638 215.317,231.596 215.566 C 231.484 216.241,230.336 218.579,230.005 218.806 C 229.847 218.915,229.717 219.134,229.716 219.292 C 229.715 219.450,229.509 220.070,229.259 220.671 C 229.008 221.271,228.803 221.861,228.803 221.983 C 228.803 222.105,228.435 222.702,227.987 223.310 C 227.538 223.919,227.014 225.003,226.824 225.720 C 226.633 226.436,226.291 227.241,226.063 227.508 C 225.835 227.775,225.476 228.530,225.265 229.186 C 225.055 229.842,224.782 230.425,224.658 230.481 C 224.535 230.537,224.201 231.092,223.916 231.715 C 222.175 235.522,221.228 237.437,220.873 237.864 C 220.652 238.131,220.284 238.932,220.058 239.644 C 219.710 240.734,218.443 243.342,216.913 246.117 C 216.717 246.472,216.237 247.601,215.846 248.625 C 215.455 249.648,215.012 250.485,214.862 250.485 C 214.712 250.485,214.331 251.214,214.015 252.104 C 213.699 252.994,213.333 253.722,213.203 253.722 C 213.072 253.722,213.049 253.940,213.152 254.207 C 213.254 254.474,213.196 254.693,213.024 254.693 C 212.851 254.693,212.451 255.384,212.136 256.230 C 211.820 257.075,211.391 257.985,211.181 258.252 C 210.972 258.519,210.540 259.393,210.222 260.194 C 209.903 260.995,209.511 261.869,209.350 262.136 C 209.190 262.403,208.731 263.277,208.332 264.078 C 207.932 264.879,207.505 265.610,207.383 265.702 C 206.983 266.005,206.442 267.739,206.611 268.179 C 206.737 268.509,207.866 268.608,211.466 268.608 L 216.155 268.608 216.543 267.314 C 216.756 266.602,217.054 266.019,217.203 266.019 C 217.353 266.019,217.476 265.892,217.476 265.735 C 217.476 265.343,218.331 263.494,219.135 262.148 C 219.503 261.532,219.850 260.794,219.905 260.508 C 220.052 259.744,222.398 255.196,222.710 255.070 C 222.857 255.011,222.978 254.792,222.979 254.585 C 222.981 254.090,224.574 250.225,224.601 250.647 C 224.632 251.111,225.860 248.798,225.876 248.246 C 225.884 247.993,226.119 247.532,226.400 247.222 C 226.680 246.912,226.939 246.464,226.975 246.226 C 227.011 245.988,227.126 245.647,227.230 245.469 C 227.334 245.291,227.512 244.755,227.626 244.278 C 227.740 243.801,228.030 243.213,228.272 242.971 C 228.621 242.623,230.030 239.904,230.249 239.159 C 230.446 238.485,231.936 235.673,232.284 235.317 C 232.523 235.073,232.802 234.451,232.906 233.935 C 233.009 233.419,233.220 232.918,233.375 232.822 C 233.530 232.726,233.657 232.355,233.657 231.997 C 233.657 230.788,234.545 230.277,234.781 231.350 C 234.892 231.859,235.268 232.580,235.615 232.952 C 235.962 233.325,236.246 233.801,236.246 234.010 C 236.246 234.547,239.180 240.269,239.523 240.399 C 239.678 240.458,239.806 240.782,239.806 241.118 C 239.806 241.746,240.997 244.516,241.885 245.955 C 242.160 246.400,242.920 247.929,243.574 249.353 C 244.227 250.777,245.016 252.307,245.325 252.754 C 245.635 253.200,246.052 254.177,246.253 254.924 C 246.455 255.671,246.803 256.470,247.027 256.701 C 247.252 256.931,247.693 257.800,248.007 258.631 C 248.321 259.463,248.789 260.318,249.046 260.532 C 249.304 260.746,249.515 261.031,249.515 261.165 C 249.515 261.300,249.735 261.936,250.004 262.580 C 250.273 263.224,250.479 263.845,250.461 263.959 C 250.444 264.073,250.564 264.256,250.727 264.365 C 250.890 264.474,251.375 265.291,251.806 266.181 C 252.237 267.071,252.761 267.981,252.970 268.204 C 253.405 268.665,261.982 268.796,262.260 268.345 C 262.432 268.068,260.923 264.679,260.505 264.401 C 260.371 264.312,260.100 263.640,259.903 262.906 C 259.706 262.173,259.270 261.224,258.934 260.797 C 258.269 259.952,257.151 257.590,257.232 257.201 C 257.259 257.067,257.120 256.958,256.923 256.958 C 256.726 256.958,256.645 256.749,256.743 256.493 C 256.841 256.238,256.805 255.983,256.662 255.927 C 256.519 255.871,256.085 255.170,255.698 254.369 C 255.312 253.568,254.644 252.257,254.216 251.456 C 253.787 250.655,253.428 249.745,253.417 249.434 C 253.407 249.122,253.244 248.867,253.055 248.867 C 252.867 248.867,252.803 248.722,252.913 248.544 C 253.023 248.366,252.988 248.220,252.835 248.220 C 252.682 248.220,252.373 247.712,252.149 247.091 C 251.924 246.470,251.567 245.778,251.356 245.554 C 250.929 245.101,250.440 244.103,249.808 242.395 C 249.578 241.772,249.308 241.189,249.209 241.100 C 248.967 240.884,248.310 239.531,247.911 238.430 C 247.734 237.941,247.440 237.540,247.257 237.540 C 247.075 237.540,246.926 237.342,246.926 237.098 C 246.926 236.855,246.408 235.581,245.775 234.267 C 243.596 229.741,240.039 222.491,239.759 222.006 C 239.605 221.739,239.152 220.866,238.752 220.065 C 238.353 219.264,237.945 218.536,237.846 218.447 C 237.747 218.358,237.477 217.775,237.247 217.152 C 236.706 215.689,236.133 214.444,235.906 214.239 C 235.807 214.150,235.473 213.532,235.162 212.864 C 234.409 211.246,233.797 211.335,232.925 213.188 M283.981 213.636 C 283.269 213.795,282.468 214.019,282.201 214.133 C 281.934 214.248,281.606 214.319,281.472 214.291 C 281.339 214.263,281.230 214.353,281.230 214.492 C 281.230 214.632,280.566 214.941,279.756 215.181 C 278.945 215.420,278.068 215.829,277.807 216.090 C 277.547 216.351,277.154 216.602,276.935 216.647 C 275.675 216.911,274.434 217.784,274.434 218.407 C 274.434 218.589,274.246 218.855,274.018 218.997 C 271.154 220.778,268.312 229.216,269.897 231.230 C 270.037 231.408,270.253 232.027,270.377 232.605 C 270.500 233.184,270.736 233.657,270.900 233.657 C 271.063 233.657,271.197 233.875,271.197 234.142 C 271.197 234.409,271.329 234.628,271.489 234.628 C 271.649 234.628,272.081 235.138,272.449 235.761 C 272.817 236.383,273.288 236.893,273.496 236.893 C 273.704 236.893,274.215 237.221,274.631 237.621 C 276.368 239.291,278.283 240.453,279.298 240.453 C 279.631 240.453,280.020 240.651,280.162 240.892 C 280.304 241.133,281.185 241.582,282.120 241.889 C 283.054 242.196,283.819 242.605,283.819 242.798 C 283.819 242.992,283.912 243.057,284.026 242.943 C 284.140 242.829,284.613 242.935,285.078 243.179 C 285.542 243.423,286.578 243.814,287.379 244.047 C 288.180 244.280,288.908 244.566,288.997 244.682 C 289.242 245.001,292.253 246.278,292.760 246.278 C 293.004 246.278,293.204 246.400,293.204 246.549 C 293.204 246.698,294.083 247.064,295.158 247.363 C 296.232 247.661,297.194 248.122,297.296 248.387 C 297.397 248.651,297.616 248.867,297.782 248.867 C 298.175 248.867,300.089 250.210,300.412 250.712 C 300.549 250.926,300.845 251.290,301.070 251.521 C 302.832 253.337,303.300 255.064,302.520 256.862 C 302.142 257.731,299.619 260.475,299.112 260.567 C 298.978 260.592,298.358 260.929,297.735 261.317 C 294.121 263.565,284.508 263.750,282.371 261.613 C 281.922 261.164,280.501 260.498,279.621 260.324 C 279.358 260.273,278.978 260.004,278.776 259.727 C 278.573 259.450,278.312 259.223,278.196 259.223 C 277.865 259.223,274.383 256.320,273.482 255.292 C 272.390 254.048,271.429 254.109,270.376 255.489 C 269.906 256.105,269.243 256.697,268.903 256.805 C 268.563 256.913,268.285 257.214,268.285 257.473 C 268.285 257.733,267.921 258.083,267.476 258.252 C 266.057 258.792,266.419 259.931,268.814 262.458 C 269.995 263.705,271.165 264.725,271.413 264.725 C 271.662 264.725,271.946 264.935,272.044 265.192 C 272.225 265.663,274.490 266.990,275.114 266.990 C 275.299 266.990,275.640 267.179,275.870 267.410 C 276.101 267.641,276.928 268.035,277.708 268.286 C 278.488 268.537,279.199 268.823,279.288 268.920 C 281.944 271.827,300.954 270.697,303.722 267.468 C 303.900 267.260,304.555 266.896,305.178 266.658 C 306.339 266.215,310.356 262.591,310.356 261.987 C 310.357 261.802,310.708 261.242,311.137 260.743 C 312.936 258.651,313.172 251.943,311.529 249.573 C 311.062 248.899,310.674 248.209,310.668 248.041 C 310.646 247.461,309.221 246.035,307.767 245.138 C 306.966 244.644,306.238 244.137,306.149 244.011 C 306.060 243.886,305.465 243.613,304.826 243.405 C 304.188 243.197,303.387 242.770,303.046 242.456 C 302.706 242.142,301.917 241.685,301.294 241.440 C 300.672 241.194,299.943 240.816,299.676 240.600 C 299.409 240.383,298.835 240.097,298.400 239.964 C 297.964 239.831,297.163 239.453,296.620 239.125 C 293.852 237.452,289.321 235.585,288.921 235.952 C 288.874 235.996,288.471 235.830,288.026 235.584 C 287.581 235.338,287.144 235.124,287.055 235.110 C 286.576 235.032,282.947 233.151,282.589 232.795 C 282.358 232.565,281.914 232.192,281.604 231.965 C 280.707 231.312,279.935 229.324,279.935 227.667 C 279.935 226.126,280.596 225.262,284.145 222.162 C 284.976 221.435,287.912 220.419,288.634 220.608 C 289.054 220.718,289.320 220.636,289.320 220.396 C 289.320 220.008,290.333 220.037,294.153 220.534 C 295.692 220.734,299.403 221.972,299.688 222.380 C 300.061 222.915,302.398 223.661,303.127 223.479 C 303.903 223.284,304.833 222.586,306.490 220.955 C 306.987 220.465,307.503 220.065,307.636 220.065 C 308.173 220.065,308.982 219.022,308.847 218.505 C 308.705 217.963,307.060 216.828,306.415 216.828 C 306.235 216.828,305.700 216.558,305.228 216.227 C 304.333 215.600,300.340 214.054,298.382 213.577 C 296.906 213.217,285.656 213.263,283.981 213.636 M66.626 214.239 C 66.604 214.417,66.558 214.745,66.524 214.968 C 66.490 215.190,66.612 215.663,66.796 216.019 C 67.125 216.659,67.195 216.867,67.273 217.453 C 67.296 217.618,67.512 217.951,67.754 218.193 C 68.250 218.689,69.707 221.714,69.630 222.087 C 69.602 222.221,69.725 222.330,69.903 222.330 C 70.081 222.330,70.211 222.439,70.192 222.573 C 70.129 223.009,70.605 224.224,71.393 225.637 C 71.818 226.399,72.543 227.824,73.004 228.803 C 73.465 229.782,74.424 231.820,75.134 233.333 C 75.844 234.846,76.629 236.464,76.877 236.929 C 77.126 237.393,77.236 237.867,77.122 237.980 C 77.008 238.094,77.068 238.188,77.255 238.188 C 77.442 238.188,77.920 238.989,78.317 239.968 C 78.714 240.947,79.157 241.748,79.300 241.748 C 79.443 241.748,79.663 242.216,79.789 242.789 C 80.057 244.009,80.217 244.349,82.190 247.875 C 82.731 248.843,83.306 250.113,83.468 250.698 C 83.629 251.283,84.046 252.166,84.393 252.661 C 85.155 253.745,86.408 256.543,86.408 257.161 C 86.408 257.405,86.521 257.605,86.660 257.605 C 86.799 257.605,87.195 258.333,87.540 259.223 C 87.886 260.113,88.262 260.841,88.377 260.841 C 88.588 260.841,89.715 263.538,89.851 264.369 C 89.891 264.618,90.116 264.944,90.351 265.092 C 90.585 265.241,90.631 265.367,90.453 265.372 C 90.252 265.378,90.258 265.472,90.470 265.620 C 90.851 265.886,91.909 268.040,91.909 268.549 C 91.909 268.730,92.019 268.927,92.152 268.986 C 92.485 269.134,93.528 271.432,93.528 272.017 C 93.528 272.923,95.053 272.582,95.294 271.622 C 95.414 271.143,95.803 270.343,96.159 269.843 C 96.515 269.343,96.877 268.546,96.963 268.071 C 97.049 267.596,97.399 266.814,97.741 266.334 C 98.083 265.854,98.270 265.368,98.157 265.255 C 98.043 265.141,98.120 265.049,98.328 265.049 C 98.536 265.049,98.706 264.894,98.706 264.705 C 98.706 264.515,99.124 263.459,99.636 262.358 C 100.148 261.257,100.826 259.777,101.142 259.070 C 101.459 258.362,101.889 257.611,102.099 257.401 C 102.309 257.191,102.748 256.168,103.074 255.128 C 103.400 254.088,103.838 253.091,104.047 252.913 C 104.256 252.735,104.681 251.897,104.991 251.052 C 105.301 250.206,105.672 249.515,105.815 249.515 C 105.958 249.515,106.323 248.750,106.626 247.816 C 106.930 246.881,107.362 245.898,107.586 245.631 C 107.811 245.364,108.334 244.308,108.749 243.285 C 109.164 242.261,109.607 241.424,109.732 241.424 C 109.858 241.424,110.051 240.940,110.162 240.348 C 110.273 239.757,110.783 238.613,111.294 237.806 C 111.806 236.999,112.325 236.024,112.446 235.640 C 112.695 234.857,114.732 230.525,115.205 229.773 C 115.866 228.725,116.828 226.385,116.828 225.829 C 116.828 225.507,116.964 225.243,117.130 225.243 C 117.296 225.243,117.534 224.923,117.658 224.532 C 117.782 224.142,118.287 223.159,118.782 222.348 C 119.276 221.537,119.869 220.218,120.099 219.417 C 120.330 218.617,120.784 217.592,121.110 217.141 C 121.435 216.691,121.789 215.780,121.896 215.119 L 122.091 213.916 117.421 213.916 L 112.751 213.916 112.327 215.129 C 112.093 215.797,111.481 217.011,110.967 217.828 C 110.453 218.644,110.032 219.509,110.032 219.748 C 110.032 220.228,107.815 224.660,107.446 224.919 C 107.319 225.008,106.963 225.847,106.655 226.784 C 106.346 227.721,105.918 228.668,105.704 228.888 C 105.250 229.353,103.883 232.201,103.883 232.683 C 103.883 232.862,103.749 233.010,103.585 233.010 C 103.421 233.010,103.118 233.520,102.912 234.144 C 102.522 235.325,99.356 241.953,98.506 243.366 C 97.685 244.732,96.440 247.565,96.440 248.067 C 96.440 248.329,96.294 248.544,96.117 248.544 C 95.939 248.544,95.793 248.671,95.793 248.826 C 95.793 248.981,95.454 249.875,95.040 250.814 L 94.287 252.519 93.523 250.612 C 93.103 249.564,92.675 248.633,92.573 248.544 C 92.471 248.455,92.025 247.581,91.582 246.602 C 91.139 245.623,90.667 244.773,90.534 244.714 C 90.400 244.655,90.291 244.398,90.291 244.143 C 90.291 243.889,90.163 243.428,90.007 243.119 C 89.851 242.810,89.479 242.047,89.181 241.424 C 88.883 240.801,88.207 239.490,87.678 238.511 C 87.150 237.532,86.714 236.698,86.710 236.656 C 86.706 236.615,86.491 236.074,86.232 235.453 C 85.973 234.833,85.761 234.253,85.761 234.164 C 85.761 234.075,85.324 233.314,84.790 232.472 C 84.256 231.630,83.819 230.696,83.819 230.397 C 83.819 230.098,83.615 229.683,83.365 229.476 C 83.116 229.269,82.821 228.738,82.709 228.295 C 82.598 227.853,82.093 226.803,81.586 225.962 C 81.079 225.121,80.567 224.021,80.449 223.517 C 80.330 223.013,79.897 222.066,79.486 221.413 C 79.075 220.761,78.541 219.680,78.301 219.013 C 78.060 218.345,77.723 217.799,77.551 217.799 C 77.379 217.799,77.329 217.709,77.439 217.599 C 77.549 217.489,77.428 217.187,77.169 216.929 C 76.911 216.670,76.699 216.128,76.699 215.723 C 76.699 214.178,75.886 213.916,71.091 213.916 C 68.384 213.916,66.651 214.041,66.626 214.239 M128.479 241.748 L 128.479 269.598 132.767 269.508 L 137.055 269.417 137.055 241.748 L 137.055 214.078 132.767 213.987 L 128.479 213.897 128.479 241.748 M321.359 241.433 L 321.359 268.627 325.809 268.537 L 330.259 268.447 330.344 256.715 L 330.429 244.984 344.988 244.984 L 359.547 244.984 359.547 256.796 L 359.547 268.608 364.401 268.608 L 369.256 268.608 369.256 241.424 L 369.256 214.239 365.413 214.239 C 363.299 214.239,361.114 214.331,360.558 214.442 L 359.547 214.644 359.547 226.092 L 359.547 237.540 354.126 237.541 C 351.145 237.541,344.664 237.638,339.725 237.755 L 330.744 237.968 330.744 226.300 C 330.744 215.959,330.686 214.610,330.232 214.436 C 329.951 214.328,327.839 214.239,325.540 214.239 L 321.359 214.239 321.359 241.433 M40.777 282.942 C 40.688 283.035,40.108 283.190,39.488 283.287 C 38.868 283.383,38.309 283.615,38.247 283.802 C 38.185 283.989,37.964 284.151,37.756 284.161 C 36.792 284.208,34.963 287.347,34.593 289.589 C 34.109 292.519,34.968 297.735,35.935 297.735 C 36.063 297.735,36.341 298.153,36.552 298.664 C 37.004 299.755,38.054 300.300,40.195 300.554 C 41.049 300.655,41.748 300.826,41.748 300.935 C 41.748 301.176,43.342 301.122,44.013 300.858 C 44.415 300.700,45.594 300.475,46.670 300.350 C 47.820 300.217,50.162 296.614,50.162 294.977 C 50.162 293.284,46.785 293.680,46.451 295.412 C 45.708 299.272,38.279 298.376,38.199 294.417 C 38.193 294.106,38.042 293.851,37.864 293.851 C 37.373 293.851,37.478 290.841,38.006 289.775 C 38.262 289.258,38.628 288.421,38.818 287.916 C 39.026 287.366,39.553 286.850,40.133 286.631 C 40.665 286.430,41.100 286.152,41.100 286.013 C 41.100 285.874,41.763 285.761,42.574 285.761 C 44.081 285.761,46.278 287.043,46.278 287.922 C 46.278 288.487,47.208 289.314,47.663 289.154 C 47.880 289.078,48.477 288.945,48.988 288.859 C 50.240 288.647,50.283 288.566,49.852 287.259 C 49.456 286.057,47.607 283.819,47.010 283.819 C 46.815 283.819,46.606 283.669,46.545 283.485 C 46.430 283.143,41.069 282.638,40.777 282.942 M58.805 283.181 C 51.645 284.987,51.897 299.455,59.107 300.502 C 59.972 300.627,60.818 300.810,60.987 300.909 C 61.391 301.146,62.896 301.139,63.285 300.899 C 63.454 300.795,64.265 300.610,65.087 300.487 C 66.797 300.231,68.387 298.976,69.604 296.926 C 70.450 295.500,70.800 288.281,70.048 287.771 C 69.861 287.644,69.453 286.994,69.143 286.327 C 68.832 285.659,68.476 285.113,68.351 285.113 C 68.225 285.112,67.641 284.699,67.051 284.196 C 66.462 283.692,65.806 283.262,65.595 283.240 C 62.864 282.960,59.787 282.933,58.805 283.181 M128.070 283.227 C 124.901 283.926,123.072 286.943,123.021 291.559 C 122.957 297.314,124.632 299.961,128.698 300.529 C 129.378 300.625,130.154 300.781,130.421 300.878 C 131.034 301.099,132.375 301.104,133.010 300.887 C 133.277 300.796,134.295 300.553,135.273 300.348 C 136.252 300.143,137.525 299.653,138.103 299.259 L 139.154 298.544 139.156 294.741 L 139.159 290.939 135.113 290.939 L 131.068 290.939 131.068 292.557 L 131.068 294.175 133.657 294.175 L 136.246 294.175 136.246 295.296 C 136.246 296.242,135.253 297.448,134.715 297.156 C 134.673 297.134,134.132 297.328,133.511 297.587 C 130.950 298.657,126.861 297.058,126.861 294.986 C 126.861 294.747,126.694 294.497,126.491 294.429 C 126.032 294.276,125.943 289.700,126.393 289.381 C 126.566 289.259,126.851 288.742,127.027 288.234 C 128.078 285.190,134.276 285.020,135.317 288.007 C 135.918 289.731,138.835 289.693,138.835 287.961 C 138.835 287.051,137.480 284.709,136.468 283.869 C 135.466 283.037,130.614 282.666,128.070 283.227 M176.331 283.000 C 176.248 283.083,175.678 283.189,175.064 283.234 C 169.988 283.609,167.887 293.364,171.845 298.186 C 173.440 300.130,173.732 300.323,175.405 300.538 C 176.028 300.618,176.756 300.767,177.023 300.868 C 177.636 301.102,178.978 301.107,179.612 300.878 C 179.879 300.781,180.656 300.624,181.339 300.529 C 184.281 300.117,187.055 295.832,187.055 291.698 C 187.055 290.805,186.954 289.975,186.831 289.851 C 186.708 289.728,186.562 289.332,186.507 288.971 C 186.129 286.496,182.932 283.349,180.498 283.057 C 178.482 282.815,176.543 282.788,176.331 283.000 M220.874 283.251 C 220.162 283.435,219.463 283.784,219.320 284.026 C 219.178 284.268,218.854 284.466,218.600 284.466 C 218.346 284.466,217.883 284.867,217.572 285.356 C 217.260 285.845,216.916 286.319,216.808 286.408 C 215.631 287.370,215.623 296.632,216.798 297.023 C 216.993 297.088,217.152 297.349,217.152 297.603 C 217.152 298.936,219.925 300.647,222.085 300.647 C 222.576 300.647,222.977 300.756,222.977 300.890 C 222.977 301.186,224.837 301.161,225.137 300.861 C 225.254 300.744,225.745 300.647,226.228 300.647 C 227.544 300.647,229.375 299.774,229.610 299.035 C 229.724 298.676,229.977 298.382,230.173 298.382 C 230.368 298.382,230.436 298.290,230.323 298.177 C 230.211 298.064,230.405 297.607,230.755 297.162 C 231.930 295.668,231.624 294.295,230.059 294.044 C 228.648 293.819,228.071 294.198,227.643 295.631 C 227.089 297.488,223.902 298.571,221.853 297.598 C 218.649 296.078,218.264 287.762,221.348 286.687 C 221.888 286.498,222.330 286.213,222.330 286.052 C 222.330 285.892,223.058 285.761,223.948 285.761 C 224.838 285.761,225.566 285.889,225.566 286.046 C 225.566 286.204,225.849 286.406,226.194 286.497 C 226.540 286.587,227.089 287.223,227.415 287.910 C 228.027 289.201,228.253 289.271,230.340 288.819 C 231.212 288.630,231.365 287.057,230.575 286.401 C 230.303 286.176,230.152 285.922,230.237 285.836 C 230.582 285.491,227.973 283.385,226.888 283.133 C 225.355 282.777,222.485 282.833,220.874 283.251 M240.939 283.039 C 240.583 283.126,239.996 283.259,239.635 283.334 C 238.307 283.612,236.615 285.470,235.446 287.935 C 234.466 289.998,234.942 296.148,236.136 296.861 C 236.375 297.003,236.570 297.332,236.570 297.592 C 236.570 298.879,239.408 300.647,241.472 300.647 C 241.980 300.647,242.395 300.756,242.395 300.890 C 242.395 301.023,242.832 301.133,243.366 301.133 C 243.900 301.133,244.337 301.040,244.337 300.927 C 244.337 300.814,245.120 300.624,246.079 300.504 C 247.889 300.278,250.162 298.743,250.162 297.747 C 250.162 297.496,250.489 296.942,250.890 296.516 C 251.686 295.669,252.026 288.294,251.294 287.772 C 251.116 287.645,250.752 287.104,250.485 286.570 C 249.959 285.517,248.725 284.242,247.549 283.537 C 246.806 283.092,242.161 282.742,240.939 283.039 M341.586 283.133 C 340.314 283.395,337.864 284.998,337.864 285.568 C 337.864 285.814,337.675 286.087,337.444 286.176 C 336.283 286.622,335.850 295.124,336.889 297.089 C 337.874 298.955,340.193 300.642,341.775 300.645 C 342.412 300.646,343.030 300.744,343.148 300.861 C 343.423 301.136,345.307 301.197,345.307 300.932 C 345.307 300.821,346.033 300.634,346.920 300.517 C 349.601 300.161,353.182 295.403,351.535 294.385 C 350.030 293.455,348.907 293.795,348.078 295.430 C 346.658 298.233,344.312 298.826,341.641 297.057 C 340.809 296.506,340.200 295.940,340.288 295.799 C 340.375 295.658,340.253 295.382,340.017 295.186 C 339.402 294.676,339.163 290.856,339.672 289.688 C 339.799 289.397,339.957 288.879,340.023 288.537 C 340.191 287.664,340.648 287.187,341.758 286.727 C 342.286 286.508,342.718 286.201,342.718 286.045 C 342.718 284.496,347.034 286.306,348.030 288.272 C 348.583 289.364,348.681 289.382,350.890 288.783 C 351.608 288.588,351.672 286.794,350.971 286.525 C 350.704 286.422,350.485 286.172,350.485 285.969 C 350.483 283.806,345.706 282.284,341.586 283.133 M74.434 291.909 L 74.434 300.647 80.259 300.647 L 86.084 300.647 86.084 299.191 L 86.084 297.735 82.039 297.735 L 77.994 297.735 77.994 290.453 L 77.994 283.172 76.214 283.172 L 74.434 283.172 74.434 291.909 M89.654 291.909 L 89.683 300.647 95.489 300.647 L 101.294 300.647 101.294 299.191 L 101.294 297.735 97.411 297.735 L 93.528 297.735 93.489 290.696 C 93.468 286.824,93.468 283.548,93.489 283.414 C 93.510 283.281,92.650 283.172,91.577 283.172 L 89.626 283.172 89.654 291.909 M105.394 283.387 C 105.275 283.506,105.178 287.438,105.178 292.125 L 105.178 300.647 112.096 300.647 L 119.015 300.647 118.973 299.272 L 118.932 297.896 113.835 297.807 L 108.738 297.718 108.738 295.470 L 108.738 293.222 113.188 293.132 L 117.638 293.042 117.736 291.499 C 117.791 290.650,117.718 289.976,117.575 290.000 C 117.431 290.024,115.384 290.027,113.026 290.006 L 108.738 289.968 108.738 288.188 L 108.738 286.408 113.188 286.357 C 115.635 286.329,117.820 286.313,118.042 286.321 C 118.313 286.331,118.447 285.812,118.447 284.754 L 118.447 283.172 112.028 283.172 C 108.498 283.172,105.512 283.269,105.394 283.387 M143.689 291.909 L 143.689 300.647 150.485 300.647 L 157.282 300.647 157.282 299.191 L 157.282 297.735 152.104 297.735 L 146.926 297.735 146.926 295.478 L 146.926 293.222 151.537 293.132 L 156.149 293.042 156.149 291.586 L 156.149 290.129 151.537 290.040 L 146.926 289.950 146.926 288.179 L 146.926 286.408 151.456 286.367 C 153.948 286.345,156.169 286.309,156.392 286.286 C 156.637 286.262,156.835 285.641,156.895 284.709 L 156.993 283.172 150.341 283.172 L 143.689 283.172 143.689 291.909 M190.939 291.909 L 190.939 300.647 192.557 300.647 L 194.175 300.647 194.175 296.936 L 194.175 293.224 198.139 293.133 L 202.104 293.042 202.104 291.748 L 202.104 290.453 198.139 290.362 L 194.175 290.271 194.175 288.340 L 194.175 286.408 198.463 286.369 C 200.821 286.348,202.854 286.346,202.980 286.365 C 203.221 286.400,203.551 284.698,203.489 283.738 C 203.455 283.219,202.924 283.172,197.195 283.172 L 190.939 283.172 190.939 291.909 M255.987 291.909 L 255.987 300.647 257.605 300.647 L 259.223 300.647 259.223 295.415 C 259.223 290.508,259.406 289.126,259.723 291.630 C 259.798 292.227,260.008 292.764,260.189 292.825 C 260.370 292.885,260.518 293.100,260.518 293.303 C 260.518 293.820,261.895 298.185,262.121 298.382 C 262.223 298.471,262.453 298.981,262.632 299.515 C 263.005 300.627,266.019 301.243,266.019 300.207 C 266.019 299.945,266.164 299.682,266.340 299.622 C 266.517 299.563,266.712 299.078,266.774 298.544 C 266.909 297.382,267.644 295.049,267.947 294.822 C 268.065 294.733,268.469 293.714,268.845 292.557 L 269.527 290.453 269.592 295.307 C 269.627 297.977,269.639 300.271,269.618 300.405 C 269.597 300.538,270.383 300.647,271.365 300.647 L 273.150 300.647 273.064 291.990 L 272.977 283.333 271.019 283.239 L 269.061 283.144 267.865 286.151 C 267.206 287.805,266.576 289.778,266.464 290.534 C 266.352 291.290,266.158 291.909,266.032 291.909 C 265.907 291.909,265.528 292.772,265.191 293.827 L 264.579 295.744 264.016 294.555 C 263.706 293.901,263.447 293.056,263.441 292.677 C 263.432 292.066,263.026 290.859,262.151 288.835 C 261.997 288.479,261.603 287.279,261.275 286.168 C 260.948 285.057,260.570 284.147,260.437 284.145 C 260.303 284.144,260.194 283.924,260.194 283.657 C 260.194 283.275,259.745 283.172,258.091 283.172 L 255.987 283.172 255.987 291.909 M277.670 291.909 L 277.670 300.647 279.126 300.647 L 280.583 300.647 280.592 294.903 C 280.603 288.750,280.714 288.544,281.915 292.454 C 282.287 293.667,282.706 294.806,282.844 294.984 C 282.983 295.162,283.198 295.817,283.323 296.440 C 283.628 297.971,284.213 299.750,284.573 300.243 C 285.048 300.893,287.687 300.764,287.893 300.081 C 287.986 299.769,288.362 298.786,288.728 297.896 C 289.094 297.006,289.627 295.332,289.912 294.175 C 290.198 293.018,290.532 291.998,290.655 291.909 C 290.778 291.820,291.024 291.237,291.203 290.614 C 291.453 289.741,291.534 290.758,291.557 295.065 L 291.586 300.647 293.209 300.647 L 294.833 300.647 294.746 291.990 L 294.660 283.333 292.405 283.236 C 291.165 283.183,290.250 283.238,290.371 283.359 C 290.493 283.481,290.441 283.862,290.257 284.206 C 290.073 284.550,289.875 285.078,289.817 285.378 C 289.558 286.725,288.910 288.850,288.714 288.997 C 288.405 289.229,287.048 293.258,287.052 293.932 C 287.054 294.244,286.909 294.498,286.731 294.498 C 286.553 294.498,286.391 294.826,286.369 295.227 C 286.327 296.030,286.232 295.786,285.615 293.285 C 285.473 292.706,285.253 292.233,285.127 292.233 C 285.001 292.233,284.884 292.051,284.867 291.828 C 284.850 291.606,284.614 290.841,284.342 290.129 C 284.070 289.417,283.841 288.566,283.833 288.238 C 283.825 287.909,283.615 287.254,283.365 286.781 C 283.116 286.309,282.746 285.303,282.543 284.547 L 282.175 283.172 279.922 283.172 L 277.670 283.172 277.670 291.909 M299.676 291.909 L 299.676 300.647 306.311 300.647 L 312.945 300.647 312.945 299.191 L 312.945 297.735 307.929 297.735 L 302.913 297.735 302.913 295.469 L 302.913 293.204 307.605 293.204 L 312.298 293.204 312.298 292.098 C 312.298 289.938,312.365 289.968,307.409 289.968 L 302.913 289.968 302.913 288.188 L 302.913 286.408 307.255 286.408 C 312.605 286.408,312.621 286.402,312.621 284.593 L 312.621 283.172 306.149 283.172 L 299.676 283.172 299.676 291.909 M317.476 291.889 L 317.476 300.647 318.932 300.647 L 320.388 300.647 320.388 297.278 L 320.388 293.909 322.411 293.789 C 324.684 293.655,326.413 294.912,327.189 297.262 C 327.382 297.846,327.751 298.406,328.009 298.505 C 328.268 298.604,328.479 298.886,328.479 299.131 C 328.479 300.035,329.625 300.647,331.317 300.647 C 333.519 300.647,333.805 299.779,332.150 298.123 C 331.911 297.884,331.330 297.007,330.859 296.175 C 330.387 295.342,329.566 294.260,329.035 293.770 C 328.178 292.982,328.224 292.698,329.187 292.835 C 329.310 292.853,329.943 292.251,330.594 291.498 C 332.269 289.560,332.167 286.029,330.387 284.362 L 329.288 283.333 323.382 283.232 L 317.476 283.131 317.476 291.889 M355.987 291.909 L 355.987 300.647 362.621 300.647 L 369.256 300.647 369.256 299.191 L 369.256 297.735 364.239 297.735 L 359.223 297.735 359.223 295.469 L 359.223 293.204 363.772 293.204 L 368.320 293.204 368.222 291.667 L 368.123 290.129 363.673 290.039 L 359.223 289.949 359.223 288.179 L 359.223 286.408 363.835 286.369 C 366.371 286.348,368.556 286.348,368.689 286.369 C 368.823 286.391,368.932 285.680,368.932 284.790 L 368.932 283.172 362.460 283.172 L 355.987 283.172 355.987 291.909 M63.754 286.084 C 63.754 286.262,63.936 286.408,64.159 286.408 C 67.226 286.411,67.992 294.567,65.146 296.920 C 62.490 299.115,58.320 297.836,57.327 294.522 C 56.568 291.988,57.372 287.464,58.640 287.132 C 58.961 287.048,59.223 286.851,59.223 286.694 C 59.223 286.536,59.442 286.408,59.709 286.408 C 59.976 286.408,60.194 286.262,60.194 286.084 C 60.194 285.906,60.995 285.761,61.974 285.761 C 62.953 285.761,63.754 285.906,63.754 286.084 M180.913 286.574 C 181.621 287.021,182.201 287.520,182.201 287.683 C 182.201 287.846,182.442 288.221,182.738 288.517 C 183.405 289.184,183.553 294.857,182.909 295.071 C 182.697 295.142,182.524 295.374,182.524 295.586 C 182.524 297.163,178.392 298.628,176.597 297.688 C 173.851 296.249,173.361 295.403,173.347 292.071 C 173.331 288.665,174.196 286.883,176.067 286.464 C 176.326 286.407,176.586 286.225,176.645 286.060 C 176.875 285.421,179.608 285.750,180.913 286.574 M245.943 286.787 C 250.638 289.860,248.614 298.103,243.204 297.942 C 238.391 297.799,236.137 288.707,240.422 286.722 C 240.884 286.508,241.481 286.213,241.748 286.066 C 242.791 285.491,244.382 285.765,245.943 286.787 M327.310 286.489 C 328.412 287.191,329.020 288.997,328.155 288.997 C 327.977 288.997,327.832 289.200,327.832 289.448 C 327.832 290.141,327.077 290.291,323.598 290.291 L 320.388 290.291 320.388 288.026 L 320.388 285.761 323.279 285.761 C 325.722 285.761,326.345 285.873,327.310 286.489 " stroke="none" fill="#5c5b5c" fill-rule="evenodd"></path><path id="path2" d="M221.845 42.419 C 220.599 42.571,218.341 42.930,216.828 43.217 C 215.316 43.504,213.277 43.881,212.298 44.055 C 211.319 44.228,210.081 44.589,209.547 44.855 C 208.777 45.239,205.345 46.281,203.398 46.722 C 203.220 46.762,202.783 46.944,202.427 47.127 C 202.071 47.310,201.159 47.654,200.400 47.893 C 199.641 48.131,198.858 48.521,198.661 48.759 C 198.464 48.996,198.038 49.191,197.714 49.191 C 197.390 49.191,197.036 49.337,196.926 49.515 C 196.816 49.693,196.441 49.838,196.093 49.838 C 195.495 49.838,194.203 50.417,193.851 50.843 C 193.762 50.951,193.167 51.209,192.528 51.417 C 191.889 51.625,190.878 52.156,190.281 52.597 C 189.683 53.038,188.968 53.398,188.690 53.398 C 188.413 53.398,187.469 53.908,186.592 54.531 C 185.716 55.154,184.839 55.663,184.643 55.663 C 184.447 55.663,184.037 55.955,183.732 56.311 C 183.427 56.667,182.922 56.966,182.608 56.977 C 182.295 56.987,181.580 57.315,181.019 57.705 C 177.970 59.826,173.354 62.987,172.894 63.269 C 171.996 63.818,171.716 64.030,170.712 64.919 C 170.178 65.391,169.159 66.160,168.448 66.627 C 167.108 67.506,166.192 68.250,164.912 69.498 C 164.501 69.899,164.010 70.227,163.821 70.227 C 163.632 70.227,163.191 70.591,162.841 71.036 C 162.491 71.481,162.104 71.845,161.981 71.845 C 161.369 71.845,150.418 82.388,147.146 86.128 C 143.428 90.377,143.140 90.735,142.338 92.095 C 141.997 92.673,141.497 93.231,141.227 93.335 C 140.957 93.438,140.826 93.670,140.937 93.849 C 141.048 94.028,140.981 94.175,140.789 94.175 C 140.597 94.175,140.260 94.575,140.042 95.065 C 139.823 95.554,139.371 96.274,139.036 96.663 C 138.335 97.481,137.640 98.619,137.346 99.434 C 137.233 99.745,137.024 100.000,136.881 100.000 C 136.738 100.000,136.525 100.437,136.408 100.971 C 136.290 101.505,136.080 101.942,135.941 101.942 C 135.681 101.942,133.252 106.526,133.144 107.220 C 133.111 107.432,132.658 108.552,132.137 109.709 C 131.615 110.866,130.990 112.468,130.746 113.269 C 130.503 114.070,130.201 114.871,130.074 115.049 C 128.343 117.485,128.222 132.400,129.883 138.673 C 130.319 140.322,131.717 143.395,132.330 144.053 C 132.704 144.454,133.010 144.990,133.010 145.243 C 133.010 146.254,137.194 149.838,138.375 149.838 L 139.482 149.838 139.482 146.297 C 139.482 144.350,139.609 142.678,139.765 142.582 C 139.920 142.486,140.061 141.732,140.077 140.906 C 140.160 136.775,141.028 129.450,141.435 129.450 C 141.561 129.450,141.760 128.831,141.876 128.074 C 142.158 126.230,143.040 122.325,143.355 121.521 C 143.495 121.165,143.944 119.636,144.353 118.123 C 144.762 116.610,145.253 115.265,145.445 115.134 C 145.636 115.004,145.666 114.894,145.511 114.892 C 145.355 114.889,145.372 114.705,145.547 114.482 C 145.722 114.260,146.135 113.204,146.465 112.136 C 146.794 111.068,147.396 109.539,147.803 108.738 C 148.209 107.937,148.542 107.166,148.542 107.026 C 148.543 106.885,148.837 106.374,149.195 105.889 C 149.553 105.405,149.902 104.719,149.970 104.365 C 150.157 103.397,151.216 101.294,151.516 101.294 C 151.661 101.294,151.780 101.087,151.780 100.834 C 151.780 100.581,152.117 99.962,152.530 99.458 C 152.942 98.955,153.463 98.086,153.688 97.526 C 153.912 96.966,154.339 96.238,154.637 95.908 C 155.730 94.694,156.983 92.880,156.732 92.875 C 156.589 92.873,156.625 92.763,156.811 92.633 C 156.998 92.502,157.867 91.448,158.743 90.291 C 159.619 89.134,161.032 87.521,161.883 86.707 C 162.734 85.893,163.430 85.072,163.430 84.883 C 163.430 84.695,163.758 84.319,164.159 84.049 C 164.559 83.778,165.656 82.851,166.597 81.989 C 168.628 80.127,172.208 77.023,172.324 77.023 C 172.477 77.023,171.676 80.443,171.490 80.583 C 169.958 81.729,169.331 102.490,170.560 111.327 C 171.156 115.603,171.290 116.350,171.521 116.667 C 171.651 116.845,172.091 118.483,172.499 120.307 C 172.908 122.132,173.345 123.625,173.472 123.625 C 173.598 123.625,173.779 124.098,173.873 124.676 C 174.127 126.234,176.469 131.060,176.973 131.064 C 177.465 131.068,179.216 130.142,179.872 129.531 C 180.110 129.308,180.427 129.126,180.575 129.126 C 180.723 129.126,181.455 128.617,182.201 127.994 C 182.946 127.371,183.756 126.861,184.000 126.861 C 184.244 126.861,184.941 126.424,185.549 125.890 C 186.157 125.356,186.797 124.919,186.970 124.919 C 187.143 124.919,187.680 124.553,188.163 124.105 C 188.646 123.657,189.177 123.374,189.343 123.477 C 189.508 123.579,189.644 123.509,189.644 123.320 C 189.644 123.132,189.799 122.977,189.989 122.977 C 190.179 122.977,190.812 122.613,191.395 122.168 C 191.979 121.723,192.616 121.359,192.812 121.359 C 193.007 121.359,193.394 121.036,193.671 120.640 C 193.948 120.244,194.175 120.029,194.175 120.161 C 194.175 120.466,196.542 119.269,197.158 118.653 C 197.412 118.399,198.301 117.881,199.134 117.502 C 199.966 117.123,200.647 116.689,200.647 116.537 C 200.647 116.386,201.073 116.177,201.593 116.073 C 202.114 115.969,202.805 115.612,203.131 115.281 C 203.456 114.949,204.523 114.342,205.502 113.933 C 206.481 113.523,207.354 113.096,207.443 112.985 C 207.532 112.874,208.333 112.423,209.223 111.982 C 210.113 111.541,210.914 111.094,211.003 110.989 C 211.092 110.883,212.189 110.471,213.440 110.073 C 216.610 109.065,216.628 109.049,216.413 107.396 C 215.880 103.295,215.370 100.465,215.135 100.300 C 214.267 99.689,214.418 81.081,215.296 80.523 C 215.516 80.383,215.609 80.267,215.504 80.264 C 215.398 80.261,215.498 79.349,215.726 78.236 C 215.954 77.124,216.328 75.303,216.558 74.191 C 216.788 73.078,217.089 72.168,217.226 72.168 C 217.363 72.168,217.478 71.913,217.481 71.602 C 217.484 71.290,218.064 69.871,218.770 68.447 C 219.476 67.023,220.056 65.698,220.059 65.503 C 220.062 65.307,220.320 64.848,220.631 64.481 C 220.943 64.114,221.416 63.500,221.683 63.115 C 223.817 60.039,226.941 56.748,228.803 55.616 C 229.337 55.291,229.773 54.903,229.773 54.753 C 229.773 54.602,230.502 54.139,231.392 53.722 C 232.282 53.305,233.010 52.863,233.010 52.740 C 233.010 52.618,233.819 52.207,234.809 51.828 C 235.799 51.450,236.829 50.920,237.098 50.651 C 237.367 50.382,237.931 50.162,238.352 50.162 C 238.772 50.162,239.497 50.017,239.963 49.840 C 240.429 49.663,241.270 49.437,241.832 49.338 C 242.394 49.239,243.030 49.012,243.244 48.834 C 243.459 48.655,245.576 48.257,247.948 47.949 C 251.301 47.513,252.283 47.275,252.358 46.883 C 252.449 46.413,250.294 45.307,249.288 45.307 C 249.086 45.307,248.873 45.163,248.813 44.985 C 248.701 44.650,244.929 43.510,243.014 43.233 C 242.406 43.145,240.526 42.862,238.835 42.605 C 235.419 42.085,225.479 41.976,221.845 42.419 M231.645 69.818 C 232.586 69.884,234.042 69.883,234.881 69.817 C 235.721 69.750,234.951 69.697,233.172 69.697 C 231.392 69.698,230.705 69.753,231.645 69.818 M44.741 253.316 C 47.189 253.371,51.193 253.371,53.641 253.316 C 56.088 253.261,54.086 253.216,49.191 253.216 C 44.296 253.216,42.294 253.261,44.741 253.316 M229.874 253.316 C 232.332 253.372,236.264 253.371,238.612 253.316 C 240.959 253.261,238.948 253.216,234.142 253.216 C 229.337 253.216,227.416 253.261,229.874 253.316 " stroke="none" fill="#f48323" fill-rule="evenodd"></path><path id="path3" d="" stroke="none" fill="#f0683c" fill-rule="evenodd"></path><path id="path4" d="M190.121 214.644 C 189.866 215.328,189.790 251.133,190.043 251.133 C 190.174 251.133,190.320 242.832,190.367 232.686 C 190.414 222.540,190.412 214.239,190.362 214.239 C 190.312 214.239,190.203 214.422,190.121 214.644 M290.049 220.297 C 290.538 220.371,291.339 220.371,291.828 220.297 C 292.318 220.222,291.917 220.162,290.939 220.162 C 289.960 220.162,289.559 220.222,290.049 220.297 M195.874 290.207 C 196.897 290.271,198.572 290.271,199.595 290.207 C 200.619 290.143,199.782 290.090,197.735 290.090 C 195.688 290.090,194.850 290.143,195.874 290.207 " stroke="none" fill="#80683c" fill-rule="evenodd"></path></g></svg>